<svg viewBox="0 0 24 24" fill="none" xmlns="http://www.w3.org/2000/svg" style="display: none;">

    <symbol id="plane" viewBox="0 0 24 24" fill="none" xmlns="http://www.w3.org/2000/svg">
        <path d="M10.5 4.5V9.16745C10.5 9.37433 10.3934 9.56661 10.218 9.67625L2.782 14.3237C2.60657 14.4334 2.5 14.6257 2.5 14.8325V15.7315C2.5 16.1219 2.86683 16.4083 3.24552 16.3136L9.75448 14.6864C10.1332 14.5917 10.5 14.8781 10.5 15.2685V18.2277C10.5 18.4008 10.4253 18.5654 10.2951 18.6793L8.13481 20.5695C7.6765 20.9706 8.03808 21.7204 8.63724 21.6114L11.8927 21.0195C11.9636 21.0066 12.0364 21.0066 12.1073 21.0195L15.3628 21.6114C15.9619 21.7204 16.3235 20.9706 15.8652 20.5695L13.7049 18.6793C13.5747 18.5654 13.5 18.4008 13.5 18.2277V15.2685C13.5 14.8781 13.8668 14.5917 14.2455 14.6864L20.7545 16.3136C21.1332 16.4083 21.5 16.1219 21.5 15.7315V14.8325C21.5 14.6257 21.3934 14.4334 21.218 14.3237L13.782 9.67625C13.6066 9.56661 13.5 9.37433 13.5 9.16745V4.5C13.5 3.67157 12.8284 3 12 3C11.1716 3 10.5 3.67157 10.5 4.5Z" stroke="currentColor" stroke-width="1.5" stroke-linecap="round" stroke-linejoin="round"></path>
    </symbol>

    <symbol id="zen" viewBox="0 0 24 24" fill="none" xmlns="http://www.w3.org/2000/svg">
        <path d="M14.5714 15.0036L15.4286 16.8486C15.4286 16.8486 19.2857 17.6678 19.2857 19.6162C19.2857 21 17.5714 21 17.5714 21H13L10.75 19.75" stroke="currentColor" stroke-width="1.5" stroke-linecap="round" stroke-linejoin="round"></path>
        <path d="M9.42864 15.0036L8.5715 16.8486C8.5715 16.8486 4.71436 17.6678 4.71436 19.6162C4.71436 21 6.42864 21 6.42864 21H8.50007L10.7501 19.75L13.5001 18" stroke="currentColor" stroke-width="1.5" stroke-linecap="round" stroke-linejoin="round"></path>
        <path d="M3 15.9261C3 15.9261 5.14286 15.4649 6.42857 15.0036C7.71429 8.54595 11.5714 9.00721 12 9.00721C12.4286 9.00721 16.2857 8.54595 17.5714 15.0036C18.8571 15.4649 21 15.9261 21 15.9261" stroke="currentColor" stroke-width="1.5" stroke-linecap="round" stroke-linejoin="round"></path>
        <path d="M12 7C13.1046 7 14 6.10457 14 5C14 3.89543 13.1046 3 12 3C10.8954 3 10 3.89543 10 5C10 6.10457 10.8954 7 12 7Z" stroke="currentColor" stroke-width="1.5" stroke-linecap="round" stroke-linejoin="round"></path>
    </symbol>

    <symbol id="chat" viewBox="0 0 24 24" fill="none" xmlns="http://www.w3.org/2000/svg">
        <path d="M7.5 22C10.5376 22 13 19.5376 13 16.5C13 13.4624 10.5376 11 7.5 11C4.46243 11 2 13.4624 2 16.5C2 17.5018 2.26783 18.441 2.7358 19.25L2.275 21.725L4.75 21.2642C5.55898 21.7322 6.49821 22 7.5 22Z" stroke="currentColor" stroke-width="1.5" stroke-linecap="round" stroke-linejoin="round"></path>
        <path d="M15.2824 17.8978C16.2587 17.7405 17.1758 17.4065 18 16.9297L21.6 17.6L20.9297 14C21.6104 12.8233 22 11.4571 22 10C22 5.58172 18.4183 2 14 2C9.97262 2 6.64032 4.97598 6.08221 8.84884" stroke="currentColor" stroke-width="1.5" stroke-linecap="round" stroke-linejoin="round"></path>
    </symbol>

    <symbol id="cb" viewBox="0 0 24 24" fill="none" xmlns="http://www.w3.org/2000/svg">
        <path d="M2 9V5.6C2 5.26863 2.26863 5 2.6 5H21.4C21.7314 5 22 5.26863 22 5.6V9V18.4C22 18.7314 21.7314 19 21.4 19H2.6C2.26863 19 2 18.7314 2 18.4V9ZM2 9H16" stroke="currentColor" stroke-width="1.5" stroke-linecap="round" stroke-linejoin="round"></path>
        <rect x="15" y="12" width="4" height="4" rx="0.6" fill="currentColor"></rect>
    </symbol>

    <symbol id="btn-back" stroke="currentColor" fill="currentColor" stroke-width="0" viewBox="0 0 512 512" xmlns="http://www.w3.org/2000/svg">
        <path d="M368 64L144 256l224 192V64z"></path>
    </symbol>

    <symbol id="btn-next" stroke="currentColor" fill="currentColor" stroke-width="0" viewBox="0 0 512 512" xmlns="http://www.w3.org/2000/svg">
        <path d="M190.06 414l163.12-139.78a24 24 0 000-36.44L190.06 98c-15.57-13.34-39.62-2.28-39.62 18.22v279.6c0 20.5 24.05 31.56 39.62 18.18z"></path>
    </symbol>

    <symbol id="contact-address" viewBox="0 0 24 24" fill="none" xmlns="http://www.w3.org/2000/svg">
        <path d="M17 21H7C4.79086 21 3 19.2091 3 17V10.7076C3 9.30887 3.73061 8.01175 4.92679 7.28679L9.92679 4.25649C11.2011 3.48421 12.7989 3.48421 14.0732 4.25649L19.0732 7.28679C20.2694 8.01175 21 9.30887 21 10.7076V17C21 19.2091 19.2091 21 17 21Z" stroke="currentColor" stroke-width="1.5" stroke-linecap="round" stroke-linejoin="round"></path>
        <path d="M9 17H15" stroke="currentColor" stroke-width="1.5" stroke-linecap="round" stroke-linejoin="round"></path>
    </symbol>

    <symbol id="contact-email" viewBox="0 0 24 24" fill="none" xmlns="http://www.w3.org/2000/svg">
        <path d="M7 6L17 6" stroke="currentColor" stroke-width="1.5" stroke-linecap="round" stroke-linejoin="round"></path>
        <path d="M7 9L17 9" stroke="currentColor" stroke-width="1.5" stroke-linecap="round" stroke-linejoin="round"></path>
        <path d="M9 17H15" stroke="currentColor" stroke-width="1.5" stroke-linecap="round" stroke-linejoin="round"></path>
        <path d="M3 12H2.6C2.26863 12 2 12.2686 2 12.6V21.4C2 21.7314 2.26863 22 2.6 22H21.4C21.7314 22 22 21.7314 22 21.4V12.6C22 12.2686 21.7314 12 21.4 12H21M3 12V2.6C3 2.26863 3.26863 2 3.6 2H20.4C20.7314 2 21 2.26863 21 2.6V12M3 12H21" stroke="currentColor" stroke-width="1.5"></path>
    </symbol>

    <symbol id="contact-phone" viewBox="0 0 24 24" fill="none" xmlns="http://www.w3.org/2000/svg">
        <path d="M12 16.01L12.01 15.9989" stroke="currentColor" stroke-width="1.5" stroke-linecap="round" stroke-linejoin="round"></path>
        <path d="M7 19.4V4.6C7 4.26863 7.26863 4 7.6 4H16.4C16.7314 4 17 4.26863 17 4.6V19.4C17 19.7314 16.7314 20 16.4 20H7.6C7.26863 20 7 19.7314 7 19.4Z" stroke="currentColor" stroke-width="1.5"></path>
    </symbol>

    <symbol id="payment" viewBox="0 0 24 24" fill="none" xmlns="http://www.w3.org/2000/svg">
        <path d="M16 12H17.4C17.7314 12 18 12.2686 18 12.6V19.4C18 19.7314 17.7314 20 17.4 20H6.6C6.26863 20 6 19.7314 6 19.4V12.6C6 12.2686 6.26863 12 6.6 12H8M16 12V8C16 6.66667 15.2 4 12 4C8.8 4 8 6.66667 8 8V12M16 12H8" stroke="currentColor" stroke-width="1.5" stroke-linecap="round" stroke-linejoin="round"></path>
    </symbol>

    <symbol id="delivery" viewBox="0 0 24 24" fill="none" xmlns="http://www.w3.org/2000/svg">
        <path d="M10.5 4.5V9.16745C10.5 9.37433 10.3934 9.56661 10.218 9.67625L2.782 14.3237C2.60657 14.4334 2.5 14.6257 2.5 14.8325V15.7315C2.5 16.1219 2.86683 16.4083 3.24552 16.3136L9.75448 14.6864C10.1332 14.5917 10.5 14.8781 10.5 15.2685V18.2277C10.5 18.4008 10.4253 18.5654 10.2951 18.6793L8.13481 20.5695C7.6765 20.9706 8.03808 21.7204 8.63724 21.6114L11.8927 21.0195C11.9636 21.0066 12.0364 21.0066 12.1073 21.0195L15.3628 21.6114C15.9619 21.7204 16.3235 20.9706 15.8652 20.5695L13.7049 18.6793C13.5747 18.5654 13.5 18.4008 13.5 18.2277V15.2685C13.5 14.8781 13.8668 14.5917 14.2455 14.6864L20.7545 16.3136C21.1332 16.4083 21.5 16.1219 21.5 15.7315V14.8325C21.5 14.6257 21.3934 14.4334 21.218 14.3237L13.782 9.67625C13.6066 9.56661 13.5 9.37433 13.5 9.16745V4.5C13.5 3.67157 12.8284 3 12 3C11.1716 3 10.5 3.67157 10.5 4.5Z" stroke="currentColor" stroke-width="1.5" stroke-linecap="round" stroke-linejoin="round"></path>
    </symbol>

    <symbol id="satisfied" viewBox="0 0 24 24" fill="none" xmlns="http://www.w3.org/2000/svg">
        <path d="M14.5714 15.0036L15.4286 16.8486C15.4286 16.8486 19.2857 17.6678 19.2857 19.6162C19.2857 21 17.5714 21 17.5714 21H13L10.75 19.75" stroke="currentColor" stroke-width="1.5" stroke-linecap="round" stroke-linejoin="round"></path>
        <path d="M9.42864 15.0036L8.5715 16.8486C8.5715 16.8486 4.71436 17.6678 4.71436 19.6162C4.71436 21 6.42864 21 6.42864 21H8.50007L10.7501 19.75L13.5001 18" stroke="currentColor" stroke-width="1.5" stroke-linecap="round" stroke-linejoin="round"></path>
        <path d="M3 15.9261C3 15.9261 5.14286 15.4649 6.42857 15.0036C7.71429 8.54595 11.5714 9.00721 12 9.00721C12.4286 9.00721 16.2857 8.54595 17.5714 15.0036C18.8571 15.4649 21 15.9261 21 15.9261" stroke="currentColor" stroke-width="1.5" stroke-linecap="round" stroke-linejoin="round"></path>
        <path d="M12 7C13.1046 7 14 6.10457 14 5C14 3.89543 13.1046 3 12 3C10.8954 3 10 3.89543 10 5C10 6.10457 10.8954 7 12 7Z" stroke="currentColor" stroke-width="1.5" stroke-linecap="round" stroke-linejoin="round"></path>
    </symbol>




</svg>